# xmcd
# 
# Track frame offsets:
#     150
#     16979
#     37680
#     52947
#     68723
#     95361
#     119989
#     146569
#     163260
#     180110
#     200798
#     216085
#     231922
#     258717
#     283236
#     309960
# 
# Disc length: 4360
# 
# Revision: 2
# Processed by: cddbd v1.5.2PL0 Copyright (c) Steve Scherf et al.
# Submitted via: fre:ac v1.1beta1pre4
# 
DISCID=e8110610
DTITLE=Various Artist - V-Hearts
DYEAR=2001
DGENRE=Game
TTITLE0=AKI/i.com(愛のドットコム)
TTITLE1=安藤 夏/少しの勇気
TTITLE2=安藤 夏/wish・・・
TTITLE3=maaya/空を見つめて
TTITLE4=安藤 夏/time cupsule〜夢色の玉手箱
TTITLE5=安藤 夏/かわらない瞳
TTITLE6=Jun/Angel Heart
TTITLE7=YUIKO/強がりなDevil
TTITLE8=なし/i.com(愛のドットコム)
TTITLE9=なし/少しの勇気
TTITLE10=なし/wish・・・
TTITLE11=なし/空を見つめて
TTITLE12=なし/time cupsule〜夢色の玉手箱
TTITLE13=なし/かわらない瞳
TTITLE14=なし/Angel Heart
TTITLE15=なし/強がりなDevil
EXTD=
EXTT0=
EXTT1=
EXTT2=
EXTT3=
EXTT4=
EXTT5=
EXTT6=
EXTT7=
EXTT8=
EXTT9=
EXTT10=
EXTT11=
EXTT12=
EXTT13=
EXTT14=
EXTT15=
PLAYORDER=
